:FULLY-SPECIFIED
:FORCE-ALL-JOINTS-BE-3DOF
:DEGREES
3160
root 0.382844 16.5687 -32.475 5.84609 -13.3309 -5.7061
lfemur -20.1058 3.51778 -7.00848
ltibia 38.3579 -0 0
lfoot -13.9606 9.23161 -0.263042
ltoes -36.7123 0 0
rfemur -19.5656 -2.71859 18.0771
rtibia 43.7671 -0 0
rfoot -14.8698 -19.3084 0.0169249
rtoes -17.4743 0 0
lowerback 7.3405 2.50153 -0.614165
upperback -4.17079 3.43082 1.75403
thorax -8.64675 1.76208 1.61516
lowerneck -5.93814 -2.87329 -6.09453
upperneck 11.7901 -3.92722 5.47334
head 4.90421 -1.8824 2.37635
lclavicle 2.48113e-14 1.03689e-14 -1.65239e-30
lhumerus -26.4196 -4.4095 88.8544
lradius 36.9636 -0 0
lwrist -19.4395 0 0
lhand -34.4808 30.7809 0.0176824
lfingers 7.12502 -0 0
lthumb -7.64307 60.6086 0.0194256
rclavicle 2.48113e-14 1.03689e-14 -1.65239e-30
rhumerus -36.5646 12.8351 -82.8148
rradius 45.3343 -0 0
rwrist -9.82212 0 0
rhand -15.1719 -33.9637 0.159303
rfingers 7.12502 -0 0
rthumb 10.9879 -63.5206 0.193268
3161
root 0.392846 16.5731 -32.4832 5.83537 -13.1408 -5.68628
lfemur -20.0529 3.45196 -7.03064
ltibia 38.3255 -0 0
lfoot -13.9981 9.2513 -0.260116
ltoes -36.754 0 0
rfemur -19.546 -2.68792 18.0792
rtibia 43.698 -0 0
rfoot -14.837 -19.3046 0.0167013
rtoes -17.4788 0 0
lowerback 7.32535 2.49478 -0.617073
upperback -4.17366 3.42151 1.75456
thorax -8.64119 1.75786 1.62018
lowerneck -5.94158 -2.8976 -6.11052
upperneck 11.7963 -3.95922 5.48088
head 4.90717 -1.89825 2.37999
lclavicle 2.49019e-14 1.04294e-14 -1.63443e-30
lhumerus -26.4587 -4.44509 88.8712
lradius 36.8482 -0 0
lwrist -19.4424 0 0
lhand -34.4685 30.7845 0.0174862
lfingers 7.12502 -0 0
lthumb -7.63116 60.6127 0.0192102
rclavicle 2.49019e-14 1.04294e-14 -1.63443e-30
rhumerus -36.5436 12.7635 -82.7898
rradius 45.2026 -0 0
rwrist -9.66751 0 0
rhand -15.2064 -33.9765 0.157537
rfingers 7.12502 -0 0
rthumb 10.9547 -63.5366 0.191129
3162
root 0.402809 16.5774 -32.4914 5.82478 -12.9514 -5.66659
lfemur -20.0002 3.38642 -7.05278
ltibia 38.2932 -0 0
lfoot -14.0354 9.27092 -0.257189
ltoes -36.7955 0 0
rfemur -19.5264 -2.65736 18.0813
rtibia 43.6293 -0 0
rfoot -14.8043 -19.3008 0.0164771
rtoes -17.4832 0 0
lowerback 7.31024 2.48806 -0.619967
upperback -4.17652 3.41223 1.75508
thorax -8.63566 1.75366 1.62517
lowerneck -5.945 -2.92181 -6.12645
upperneck 11.8025 -3.9911 5.48839
head 4.91011 -1.91403 2.38362
lclavicle 2.49921e-14 1.04897e-14 -1.61645e-30
lhumerus -26.4977 -4.48049 88.8879
lradius 36.7333 -0 0
lwrist -19.4453 0 0
lhand -34.4562 30.7881 0.0172901
lfingers 7.12502 -0 0
lthumb -7.61929 60.6169 0.0189948
rclavicle 2.49921e-14 1.04897e-14 -1.61645e-30
rhumerus -36.5227 12.6921 -82.765
rradius 45.0713 -0 0
rwrist -9.5135 0 0
rhand -15.2408 -33.9892 0.15577
rfingers 7.12502 -0 0
rthumb 10.9217 -63.5526 0.18899
3163
root 0.412733 16.5818 -32.4995 5.81429 -12.7626 -5.64703
lfemur -19.9476 3.32114 -7.07489
ltibia 38.261 -0 0
lfoot -14.0726 9.29045 -0.254261
ltoes -36.8368 0 0
rfemur -19.507 -2.62692 18.0834
rtibia 43.5608 -0 0
rfoot -14.7718 -19.2971 0.0162523
rtoes -17.4877 0 0
lowerback 7.29519 2.48136 -0.622847
upperback -4.17938 3.40299 1.75561
thorax -8.63014 1.74948 1.63015
lowerneck -5.94839 -2.94593 -6.14232
upperneck 11.8086 -4.02287 5.49587
head 4.91304 -1.92976 2.38724
lclavicle 2.5082e-14 1.05497e-14 -1.59845e-30
lhumerus -26.5366 -4.51571 88.9046
lradius 36.6187 -0 0
lwrist -19.4482 0 0
lhand -34.4439 30.7916 0.0170939
lfingers 7.12502 -0 0
lthumb -7.60747 60.6211 0.0187793
rclavicle 2.5082e-14 1.05497e-14 -1.59845e-30
rhumerus -36.502 12.6209 -82.7402
rradius 44.9405 -0 0
rwrist -9.36009 0 0
rhand -15.2751 -34.0019 0.154002
rfingers 7.12502 -0 0
rthumb 10.8887 -63.5685 0.18685
3164
root 0.422617 16.5861 -32.5077 5.80393 -12.5746 -5.62759
lfemur -19.8952 3.25613 -7.09696
ltibia 38.229 -0 0
lfoot -14.1096 9.3099 -0.251332
ltoes -36.878 0 0
rfemur -19.4876 -2.59659 18.0854
rtibia 43.4926 -0 0
rfoot -14.7394 -19.2934 0.016027
rtoes -17.4922 0 0
lowerback 7.28019 2.47469 -0.625713
upperback -4.18222 3.39379 1.75613
thorax -8.62465 1.74531 1.63511
lowerneck -5.95178 -2.96997 -6.15812
upperneck 11.8147 -4.05452 5.50332
head 4.91596 -1.94543 2.39084
lclavicle 2.51714e-14 1.06095e-14 -1.58043e-30
lhumerus -26.5755 -4.55074 88.9213
lradius 36.5046 -0 0
lwrist -19.4511 0 0
lhand -34.4317 30.7952 0.0168977
lfingers 7.12502 -0 0
lthumb -7.59569 60.6252 0.0185638
rclavicle 2.51714e-14 1.06095e-14 -1.58043e-30
rhumerus -36.4814 12.55 -82.7156
rradius 44.8102 -0 0
rwrist -9.20729 0 0
rhand -15.3093 -34.0145 0.152234
rfingers 7.12502 -0 0
rthumb 10.8559 -63.5844 0.18471
3165
root 0.432463 16.5904 -32.5158 5.79367 -12.3873 -5.60828
lfemur -19.843 3.19139 -7.11901
ltibia 38.197 -0 0
lfoot -14.1465 9.32928 -0.248403
ltoes -36.9191 0 0
rfemur -19.4682 -2.56637 18.0875
rtibia 43.4246 -0 0
rfoot -14.7071 -19.2898 0.0158012
rtoes -17.4966 0 0
lowerback 7.26525 2.46804 -0.628566
upperback -4.18506 3.38462 1.75665
thorax -8.61917 1.74116 1.64005
lowerneck -5.95514 -2.99391 -6.17387
upperneck 11.8208 -4.08605 5.51073
head 4.91887 -1.96104 2.39442
lclavicle 2.52605e-14 1.0669e-14 -1.56239e-30
lhumerus -26.6142 -4.58558 88.9379
lradius 36.3909 -0 0
lwrist -19.4539 0 0
lhand -34.4196 30.7987 0.0167015
lfingers 7.12502 -0 0
lthumb -7.58397 60.6294 0.0183484
rclavicle 2.52605e-14 1.0669e-14 -1.56239e-30
rhumerus -36.4609 12.4794 -82.6911
rradius 44.6804 -0 0
rwrist -9.05511 0 0
rhand -15.3433 -34.027 0.150465
rfingers 7.12502 -0 0
rthumb 10.8232 -63.6002 0.182569
3166
root 0.442268 16.5947 -32.5239 5.78353 -12.2007 -5.58909
lfemur -19.791 3.12693 -7.14102
ltibia 38.1652 -0 0
lfoot -14.1833 9.34857 -0.245473
ltoes -36.9599 0 0
rfemur -19.449 -2.53628 18.0896
rtibia 43.3569 -0 0
rfoot -14.6749 -19.2861 0.015575
rtoes -17.501 0 0
lowerback 7.25036 2.46142 -0.631405
upperback -4.18788 3.37549 1.75717
thorax -8.61372 1.73702 1.64496
lowerneck -5.95848 -3.01777 -6.18955
upperneck 11.8269 -4.11746 5.51812
head 4.92177 -1.97659 2.398
lclavicle 2.53493e-14 1.07283e-14 -1.54433e-30
lhumerus -26.6528 -4.62022 88.9545
lradius 36.2776 -0 0
lwrist -19.4568 0 0
lhand -34.4075 30.8023 0.0165054
lfingers 7.12502 -0 0
lthumb -7.57229 60.6335 0.0181329
rclavicle 2.53493e-14 1.07283e-14 -1.54433e-30
rhumerus -36.4406 12.4089 -82.6668
rradius 44.5511 -0 0
rwrist -8.90354 0 0
rhand -15.3772 -34.0395 0.148697
rfingers 7.12502 -0 0
rthumb 10.7906 -63.6159 0.180427
3167
root 0.452033 16.599 -32.5319 5.77351 -12.0148 -5.57002
lfemur -19.7391 3.06274 -7.16299
ltibia 38.1334 -0 0
lfoot -14.2199 9.36778 -0.242543
ltoes -37.0006 0 0
rfemur -19.4298 -2.50629 18.0916
rtibia 43.2895 -0 0
rfoot -14.6429 -19.2825 0.0153484
rtoes -17.5055 0 0
lowerback 7.23552 2.45482 -0.63423
upperback -4.1907 3.36641 1.75769
thorax -8.60829 1.7329 1.64986
lowerneck -5.96181 -3.04153 -6.20516
upperneck 11.8329 -4.14875 5.52547
head 4.92466 -1.99208 2.40155
lclavicle 2.54376e-14 1.07874e-14 -1.52626e-30
lhumerus -26.6914 -4.65467 88.971
lradius 36.1647 -0 0
lwrist -19.4596 0 0
lhand -34.3954 30.8058 0.0163093
lfingers 7.12502 -0 0
lthumb -7.56065 60.6376 0.0179175
rclavicle 2.54376e-14 1.07874e-14 -1.52626e-30
rhumerus -36.4205 12.3387 -82.6426
rradius 44.4223 -0 0
rwrist -8.75258 0 0
rhand -15.411 -34.052 0.146928
rfingers 7.12502 -0 0
rthumb 10.7582 -63.6316 0.178286
